<?xml version="1.0" encoding="UTF-8" standalone="yes"?>
<svg version="1.2" width="512.000000pt" height="512.000000pt" viewBox="0 0 512.000000 512.000000" preserveAspectRatio="xMidYMid meet" baseProfile="tiny-ps" xmlns="http://www.w3.org/2000/svg">
  <title>bimi-svg-tiny-12-ps</title>
  <g transform="translate(0.000000,512.000000) scale(0.100000,-0.100000)" fill="#000000" stroke="none">
    <path d="M0 2560 l0 -2560 2560 0 2560 0 0 2560 0 2560 -2560 0 -2560 0 0&#xA;-2560z m3635 1085 c182 -38 351 -169 433 -336 66 -133 72 -177 72 -539 0 -362&#xA;-6 -406 -72 -539 -59 -119 -161 -222 -278 -280 -121 -59 -189 -71 -423 -71&#xA;l-199 0 -51 -46 c-67 -58 -193 -120 -282 -139 -103 -22 -1168 -21 -1269 0&#xA;-239 50 -441 252 -491 491 -21 99 -21 669 0 768 39 183 170 352 336 434 122&#xA;61 188 72 422 72 l199 0 51 45 c65 56 194 121 278 140 96 20 1175 21 1274 0z"/>
    <path d="M3076 3337 c83 -61 147 -138 194 -233 66 -133 72 -179 68 -569 -2&#xA;-187 -8 -348 -12 -359 -9 -17 -2 -18 125 -14 121 3 140 6 194 31 78 36 146&#xA;104 182 181 l28 61 0 335 0 335 -28 60 c-36 78 -104 146 -181 182 l-61 28&#xA;-284 3 -285 3 60 -44z"/>
    <path d="M1605 3166 c-107 -34 -186 -102 -232 -201 l-28 -60 0 -335 0 -335 28&#xA;-61 c36 -77 104 -145 182 -181 59 -28 63 -28 280 -31 121 -2 249 -2 284 0 l64&#xA;3 -51 33 c-118 76 -226 241 -258 393 -13 61 -15 135 -12 414 2 187 7 348 12&#xA;358 8 16 -1 17 -110 16 -67 0 -137 -6 -159 -13z"/>
    <path d="M2162 3143 c-15 -34 -17 -77 -17 -373 l0 -335 28 -61 c36 -77 104&#xA;-145 182 -181 l60 -28 305 0 305 0 17 50 c16 44 17 88 15 370 l-2 320 -28 60&#xA;c-36 78 -104 146 -181 182 l-61 28 -303 3 -303 3 -17 -38z"/>
  </g>
</svg>
